<svg width="120" height="63" viewBox="0 0 120 63" fill="none" xmlns="http://www.w3.org/2000/svg">
<rect width="120" height="62.4531" fill="white"/>
<g clip-path="url(#clip0_1_3653)">
<path d="M61.3214 0H58.6788H0.012207V61.7266H58.6788H61.3214H119.988V32.2399V29.4867V0H61.3214ZM58.6788 59.0622H2.65485V2.66446H58.6788V29.4867V32.2399V59.0622ZM117.345 59.0622H61.3214V32.2399H117.345V59.0622ZM61.3214 29.4867V2.66446H117.345V29.4867H61.3214Z" fill="black"/>
<path d="M58.6787 2.66455H2.65479V59.0623H58.6787V2.66455Z" fill="url(#paint0_linear_1_3653)"/>
<path d="M69.2669 43.5775H67.3958V41.4985H69.2669V39.3438L71.7239 38.6445V41.4985H76.6758V43.5775H71.7239V46.2802C71.7239 47.2505 71.9066 47.956 72.272 48.3971C72.6375 48.8255 73.1478 49.0397 73.8029 49.0397C74.1432 49.0397 74.4519 49.0019 74.7291 48.9263C75.0062 48.8381 75.2519 48.731 75.4662 48.605C75.693 48.479 75.8946 48.3404 76.071 48.1892C76.26 48.038 76.4301 47.8993 76.5813 47.7734L77.7153 49.4744C77.5011 49.7264 77.2302 49.9595 76.9026 50.1737C76.5876 50.3753 76.2411 50.558 75.8631 50.7218C75.4976 50.873 75.1134 50.9927 74.7102 51.0809C74.3069 51.1691 73.91 51.2132 73.5194 51.2132C72.1083 51.2132 71.0435 50.8226 70.3253 50.0414C69.6197 49.2476 69.2669 47.9938 69.2669 46.2802V43.5775Z" fill="black"/>
<path d="M88.5 49.9469C88.3365 50.0981 88.122 50.2493 87.8574 50.4005C87.6051 50.5392 87.3027 50.6715 86.9502 50.7974C86.61 50.9234 86.232 51.0242 85.8162 51.0998C85.4004 51.1754 84.9591 51.2132 84.4932 51.2132C83.687 51.2132 82.9622 51.0998 82.3196 50.873C81.6896 50.6462 81.1541 50.3186 80.7131 49.8902C80.2721 49.4492 79.9319 48.9263 79.6925 48.3215C79.4657 47.7041 79.3523 47.0048 79.3523 46.2236C79.3523 45.3919 79.4846 44.6674 79.7492 44.05C80.0138 43.42 80.3729 42.8971 80.8265 42.4813C81.2927 42.0655 81.8346 41.7568 82.4519 41.5552C83.0691 41.341 83.7372 41.2339 84.4554 41.2339C84.9345 41.2339 85.4259 41.2969 85.9296 41.4229C86.4465 41.5489 86.919 41.7694 87.3471 42.0844C87.7752 42.3868 88.122 42.7963 88.3866 43.3129C88.6636 43.8296 88.8024 44.4847 88.8024 45.2785C88.8024 45.8203 88.7392 46.4062 88.6134 47.0363H81.8093C81.8219 47.4395 81.9038 47.7797 82.055 48.0569C82.2186 48.3341 82.4265 48.5609 82.6787 48.7373C82.9433 48.9137 83.2392 49.046 83.5671 49.1342C83.9073 49.2098 84.2664 49.2476 84.6444 49.2476C85.4004 49.2476 86.0175 49.1594 86.4966 48.983C86.988 48.8066 87.3849 48.5924 87.6873 48.3404L88.5 49.9469ZM84.4176 43.1995C84.0897 43.1995 83.7815 43.2436 83.4915 43.3318C83.2014 43.42 82.9368 43.5523 82.6976 43.7287C82.4708 43.8925 82.2818 44.1004 82.1306 44.3524C81.9794 44.6045 81.8913 44.888 81.866 45.2029H86.5155C86.5155 44.5856 86.3388 44.1004 85.9863 43.7476C85.6461 43.3822 85.1235 43.1995 84.4176 43.1995Z" fill="black"/>
<path d="M100.06 50.0414C99.5428 50.432 98.938 50.7282 98.2452 50.9297C97.5525 51.1187 96.8277 51.2132 96.0717 51.2132C95.2524 51.2132 94.5219 51.0935 93.8792 50.8541C93.249 50.6148 92.714 50.2808 92.2727 49.8524C91.8446 49.4114 91.5167 48.8822 91.2899 48.2648C91.0631 47.6474 90.9497 46.967 90.9497 46.2236C90.9497 45.4297 91.082 44.7241 91.3466 44.1067C91.6112 43.4893 91.9769 42.9664 92.4428 42.538C92.9219 42.1096 93.4823 41.7883 94.125 41.5741C94.7676 41.3473 95.4669 41.2339 96.2229 41.2339C96.9288 41.2339 97.5903 41.3158 98.2074 41.4796C98.8246 41.6434 99.2971 41.8009 99.6249 41.9521V45.2785H97.5459V43.5397C97.1556 43.4515 96.7644 43.4074 96.3741 43.4074C96.0216 43.4074 95.6682 43.4641 95.3157 43.5775C94.9755 43.6783 94.6665 43.8485 94.3896 44.0878C94.125 44.3146 93.9047 44.6045 93.728 44.9572C93.5645 45.31 93.4823 45.7322 93.4823 46.2236C93.4823 46.6268 93.5514 46.9985 93.6902 47.3387C93.8291 47.6789 94.0239 47.975 94.2762 48.227C94.5284 48.479 94.8366 48.6806 95.2023 48.8318C95.5803 48.9704 95.9961 49.0397 96.4497 49.0397C97.1679 49.0397 97.7538 48.9389 98.2074 48.7373C98.6734 48.5357 99.0201 48.3593 99.2469 48.2081L100.06 50.0414Z" fill="black"/>
<path d="M101.073 37.7185H104.891V42.557H104.966C105.269 42.1537 105.672 41.8324 106.176 41.5931C106.68 41.3537 107.272 41.234 107.953 41.234C108.432 41.234 108.872 41.297 109.276 41.423C109.679 41.5489 110.025 41.7568 110.315 42.0467C110.605 42.3365 110.832 42.7334 110.996 43.2374C111.159 43.7288 111.241 44.3399 111.241 45.0707V50.9487H108.784V45.581C108.784 44.8124 108.621 44.258 108.293 43.9178C107.965 43.5776 107.537 43.4075 107.008 43.4075C106.542 43.4075 106.113 43.5524 105.722 43.8422C105.332 44.1194 105.054 44.4785 104.891 44.9195V50.9487H102.434V39.7975H101.073V37.7185Z" fill="black"/>
<path d="M73.9617 15.0051L75.3792 19.1443H75.4737L75.6438 17.5188L76.4187 12.7371H78.6301L76.7211 22.1872H74.2452L73.1868 18.4449H73.0923L71.9016 22.1872H69.35L67.3655 12.7371H69.8225L70.7486 17.9724L70.8998 19.1443H70.9943L72.393 15.0051H73.9617Z" fill="black"/>
<path d="M88.7532 21.1857C88.5897 21.3369 88.3752 21.4881 88.1106 21.6393C87.8583 21.7779 87.5559 21.9102 87.2034 22.0362C86.8632 22.1622 86.4852 22.263 86.0694 22.3386C85.6536 22.4142 85.2123 22.452 84.7463 22.452C83.9402 22.452 83.2154 22.3386 82.5728 22.1118C81.9428 21.885 81.4072 21.5574 80.9663 21.129C80.5253 20.688 80.1851 20.1651 79.9457 19.5603C79.7189 18.9429 79.6055 18.2436 79.6055 17.4623C79.6055 16.6307 79.7378 15.9062 80.0024 15.2888C80.267 14.6588 80.6261 14.1359 81.0797 13.7201C81.5459 13.3043 82.0876 12.9955 82.7051 12.794C83.3222 12.5797 83.9903 12.4727 84.7085 12.4727C85.1876 12.4727 85.679 12.5357 86.1828 12.6617C86.6996 12.7876 87.1722 13.0082 87.6003 13.3232C88.0284 13.6256 88.3752 14.0351 88.6398 14.5517C88.9167 15.0683 89.0556 15.7235 89.0556 16.5173C89.0556 17.0591 88.9923 17.645 88.8666 18.275H82.0625C82.0751 18.6783 82.157 19.0185 82.3082 19.2957C82.4717 19.5728 82.6796 19.7996 82.9319 19.9761C83.1965 20.1525 83.4924 20.2848 83.8202 20.373C84.1604 20.4486 84.5195 20.4864 84.8975 20.4864C85.6536 20.4864 86.2707 20.3982 86.7498 20.2218C87.2412 20.0453 87.6381 19.8312 87.9405 19.5792L88.7532 21.1857ZM84.6707 14.4383C84.3429 14.4383 84.0347 14.4824 83.7446 14.5706C83.4545 14.6588 83.1899 14.7911 82.9508 14.9675C82.724 15.1313 82.535 15.3392 82.3838 15.5912C82.2326 15.8432 82.1444 16.1267 82.1192 16.4417H86.7687C86.7687 15.8243 86.592 15.3392 86.2395 14.9864C85.8993 14.621 85.3766 14.4383 84.6707 14.4383Z" fill="black"/>
<path d="M89.7474 8.95703H93.6598V13.4931H93.7354C94 13.1907 94.3525 12.9513 94.7938 12.7749C95.2474 12.5985 95.8021 12.5103 96.457 12.5103C97.7045 12.5103 98.6996 12.9009 99.4433 13.6821C100.199 14.4633 100.577 15.6414 100.577 17.2165C100.577 18.0606 100.452 18.8104 100.199 19.4656C99.947 20.1082 99.5879 20.65 99.122 21.091C98.6684 21.5194 98.1079 21.847 97.4399 22.0738C96.7849 22.3006 96.0412 22.414 95.2096 22.414C94.2268 22.414 93.4018 22.3006 92.7337 22.0738C92.0787 21.847 91.5684 21.6202 91.2028 21.3934V11.0361H89.7474V8.95703ZM95.7766 14.5893C95.6 14.5893 95.4052 14.6208 95.1907 14.6838C94.9762 14.7468 94.7683 14.835 94.567 14.9484C94.378 15.0618 94.1956 15.2067 94.0189 15.3831C93.8554 15.5469 93.7354 15.7359 93.6598 15.9501V19.8814C93.8611 19.9822 94.1389 20.083 94.4914 20.1838C94.8439 20.2846 95.2219 20.335 95.6254 20.335C95.9533 20.335 96.2615 20.2783 96.5515 20.1649C96.854 20.0389 97.112 19.8499 97.3265 19.5979C97.5533 19.3459 97.7299 19.0309 97.8557 18.6529C97.9814 18.2749 98.0447 17.8213 98.0447 17.2921C98.0447 16.3974 97.8491 15.7233 97.4588 15.2697C97.0808 14.8161 96.5203 14.5893 95.7766 14.5893Z" fill="black"/>
<path d="M108.419 10.9945C109.11 11.0651 109.701 11.2979 110.192 11.6931C110.696 12.0883 110.949 12.6669 110.949 13.429C110.949 13.9371 110.834 14.3816 110.603 14.7627C110.372 15.1296 110.062 15.44 109.673 15.6941C109.284 15.934 108.837 16.1175 108.332 16.2445C107.842 16.3715 107.337 16.435 106.819 16.435C106.256 16.435 105.615 16.3574 104.894 16.2021C104.173 16.0328 103.452 15.6659 102.731 15.1013L103.661 13.2808C104.266 13.7183 104.822 14.0217 105.326 14.1911C105.831 14.3463 106.307 14.4239 106.754 14.4239C107.215 14.4239 107.612 14.3252 107.943 14.1275C108.289 13.93 108.462 13.6689 108.462 13.3443C108.462 13.0197 108.317 12.7727 108.029 12.6034C107.755 12.434 107.251 12.3494 106.515 12.3494H105.694V11.2274L107.597 9.40682H103.769V7.39575H110.581V8.87762L108.419 10.9945Z" fill="black"/>
</g>
<defs>
<linearGradient id="paint0_linear_1_3653" x1="58.6487" y1="2.63995" x2="2.21891" y2="58.6076" gradientUnits="userSpaceOnUse">
<stop stop-color="#99FFA1"/>
<stop offset="0.9944" stop-color="#00FFF7"/>
</linearGradient>
<clipPath id="clip0_1_3653">
<rect width="119.976" height="62.4531" fill="white" transform="translate(0.012207)"/>
</clipPath>
</defs>
</svg>
