<svg width="25" height="25" viewBox="0 0 25 25" fill="none" xmlns="http://www.w3.org/2000/svg">
<g clip-path="url(#clip0_1_3707)">
<path d="M24.9844 24.3438H0.984375V0.34375H24.9844V24.3438ZM17.2404 19.1957C17.4554 19.3487 17.7314 19.3867 17.9784 19.2927C18.2244 19.1997 18.4064 18.9888 18.4614 18.7327C19.0404 16.0107 20.4464 9.11875 20.9734 6.64275C21.0124 6.45575 20.9464 6.26175 20.8004 6.13675C20.6534 6.01275 20.4494 5.97675 20.2684 6.04375C17.4734 7.07775 8.86438 10.3078 5.34538 11.6108C5.12238 11.6927 4.97738 11.9078 4.98438 12.1438C4.99237 12.3787 5.15137 12.5837 5.37937 12.6528C6.95738 13.1237 9.02938 13.7808 9.02938 13.7808C9.02938 13.7808 9.99638 16.7048 10.5014 18.1908C10.5644 18.3778 10.7114 18.5248 10.9034 18.5748C11.0964 18.6248 11.3004 18.5728 11.4444 18.4368C12.2554 17.6718 13.5084 16.4888 13.5084 16.4888C13.5084 16.4888 15.8894 18.2347 17.2404 19.1957ZM9.90038 13.4117L11.0194 17.1038L11.2684 14.7657C11.2684 14.7657 15.5924 10.8658 18.0584 8.64175C18.1304 8.57675 18.1404 8.46775 18.0804 8.39075C18.0204 8.31375 17.9114 8.29575 17.8294 8.34775C14.9724 10.1727 9.90038 13.4117 9.90038 13.4117Z" fill="#C6A67D"/>
</g>
<defs>
<clipPath id="clip0_1_3707">
<rect x="0.984375" y="0.34375" width="24" height="24" rx="5" fill="white"/>
</clipPath>
</defs>
</svg>
