<svg width="29" height="29" viewBox="0 0 29 29" fill="none" xmlns="http://www.w3.org/2000/svg">
<g clip-path="url(#clip0_1_3710)">
<path d="M19.3341 2.77832H11.8648C5.04235 2.77832 3.41919 4.40148 3.41919 11.2113V18.6805C3.41919 25.5029 5.02973 27.1261 11.8521 27.1261H19.3214C26.1439 27.1261 27.767 25.5156 27.767 18.6931V11.224C27.767 4.40148 26.1565 2.77832 19.3341 2.77832ZM23.075 20.1515H21.2996C20.6276 20.1515 20.4246 19.6062 19.2199 18.4015C18.1673 17.387 17.7235 17.2602 17.4572 17.2602C17.0895 17.2602 16.988 17.3616 16.988 17.8689V19.4667C16.988 19.8979 16.8485 20.1515 15.7199 20.1515C14.6248 20.0779 13.5627 19.7452 12.6213 19.1808C11.6799 18.6164 10.886 17.8364 10.3051 16.9051C8.92588 15.1885 7.96628 13.1737 7.50255 11.021C7.50255 10.7547 7.60397 10.5138 8.11125 10.5138H9.88658C10.3431 10.5138 10.508 10.7167 10.6855 11.1859C11.5478 13.7221 13.0189 15.9287 13.6148 15.9287C13.8431 15.9287 13.9445 15.8272 13.9445 15.2566V12.6442C13.8684 11.4522 13.2344 11.3507 13.2344 10.9196C13.2428 10.8059 13.2951 10.6999 13.3803 10.6241C13.4656 10.5483 13.577 10.5088 13.6909 10.5138H16.4808C16.8612 10.5138 16.988 10.704 16.988 11.1605V14.6859C16.988 15.0664 17.1529 15.1931 17.267 15.1931C17.4953 15.1931 17.6728 15.0664 18.0913 14.6479C18.9905 13.5512 19.7253 12.3295 20.2724 11.021C20.3283 10.8636 20.4342 10.7288 20.5738 10.6372C20.7135 10.5456 20.8794 10.5022 21.046 10.5138H22.8214C23.354 10.5138 23.4681 10.7801 23.354 11.1605C22.708 12.6072 21.9087 13.9804 20.9699 15.2566C20.7797 15.5482 20.7036 15.7004 20.9699 16.0428C21.1475 16.3091 21.7689 16.829 22.1873 17.3236C22.796 17.9307 23.3014 18.6332 23.6837 19.4033C23.8358 19.8979 23.5822 20.1515 23.075 20.1515Z" fill="#C6A67D"/>
</g>
<defs>
<clipPath id="clip0_1_3710">
<rect width="28" height="28" fill="white" transform="translate(0.984375 0.34375)"/>
</clipPath>
</defs>
</svg>
