<svg width="28" height="21" viewBox="0 0 28 21" fill="none" xmlns="http://www.w3.org/2000/svg">
<g clip-path="url(#clip0_1_3713)">
<path d="M26.9238 4.04365C26.6847 2.72412 25.5456 1.76318 24.2238 1.46318C22.2456 1.04365 18.5847 0.743652 14.6238 0.743652C10.6651 0.743652 6.94561 1.04365 4.96514 1.46318C3.64561 1.76318 2.50419 2.66318 2.26513 4.04365C2.02373 5.54365 1.78467 7.64365 1.78467 10.3436C1.78467 13.0436 2.02373 15.1437 2.32373 16.6437C2.56513 17.9632 3.7042 18.9242 5.02374 19.2241C7.12373 19.6437 10.7237 19.9436 14.6847 19.9436C18.6456 19.9436 22.2456 19.6437 24.3456 19.2241C25.6652 18.9242 26.8042 18.0242 27.0456 16.6437C27.2847 15.1437 27.5847 12.9827 27.6456 10.3436C27.5238 7.64365 27.2238 5.54365 26.9238 4.04365ZM11.3847 14.5436V6.14365L18.7042 10.3436L11.3847 14.5436Z" fill="#C6A67D"/>
</g>
<defs>
<clipPath id="clip0_1_3713">
<rect width="27" height="20" fill="white" transform="translate(0.984375 0.34375)"/>
</clipPath>
</defs>
</svg>
