<svg width="190" height="194" viewBox="0 0 190 194" fill="none" xmlns="http://www.w3.org/2000/svg">
<g clip-path="url(#clip0_1_3648)">
<path d="M41.7017 92.4292C41.0629 84.4748 40.4184 76.5234 39.7682 68.5746C39.2647 62.2819 38.764 55.9876 38.2662 49.692C38.167 48.4392 38.0806 47.1864 37.9296 45.9421C37.9023 45.793 37.8415 45.6515 37.7517 45.5293C37.6619 45.4074 37.5456 45.3073 37.4117 45.2375C35.3616 44.607 33.2943 44.0328 31.0802 43.4019C29.151 67.4436 27.2261 91.3809 25.2925 115.444H43.536C43.4798 114.827 43.4236 114.235 43.3763 113.644C42.8183 106.571 42.2599 99.4993 41.7017 92.4292ZM115.004 85.3302C116.473 85.3962 117.946 85.3847 119.414 85.2953C119.5 83.7971 119.487 82.2947 119.376 80.7977H114.978C114.886 82.3074 114.894 83.8218 115.004 85.3302ZM115.004 79.9888C115.573 80.0582 119.069 80.0365 119.414 79.9624C119.5 78.4629 119.49 76.9588 119.384 75.4606H114.982C114.89 76.9686 114.896 78.4813 114.999 79.9888H115.004ZM116.113 74.6862H117.201C117.576 74.6862 117.952 74.6862 118.331 74.6862C118.699 74.7198 119.069 74.7006 119.432 74.6295C119.501 73.1236 119.487 71.6144 119.388 70.1102H117.196C116.816 70.1102 116.441 70.1102 116.061 70.1102C115.687 70.0762 115.311 70.0966 114.943 70.1712V74.6862H116.113ZM115.025 64.86C114.999 66.3343 115.047 67.8176 114.999 69.3009C116.481 69.3882 117.968 69.3767 119.449 69.2664V64.8293C117.974 64.736 116.494 64.7463 115.021 64.86H115.025ZM99.6087 80.8719C99.6087 82.3462 99.6087 83.8295 99.6087 85.3042C101.082 85.4018 102.56 85.3916 104.033 85.2736V80.8369C102.557 80.7432 101.078 80.7547 99.6045 80.8719H99.6087ZM100.752 80.0016H101.836C102.215 80.0016 102.595 80.0016 102.971 80.0016C103.324 80.0352 103.68 80.0165 104.028 79.9449C104.097 78.4374 104.081 76.9273 103.981 75.4214H101.823C101.447 75.4214 101.067 75.4214 100.692 75.4214C100.333 75.3873 99.9704 75.4078 99.6172 75.4823V79.9973L100.752 80.0016ZM99.613 70.1754C99.613 71.6497 99.613 73.1335 99.613 74.6078C101.086 74.7045 102.565 74.696 104.037 74.5818V70.1447C102.561 70.057 101.082 70.0745 99.6087 70.1971L99.613 70.1754ZM104.028 69.2446C104.094 67.7631 104.082 66.2789 103.994 64.7991C102.539 64.7083 101.079 64.7215 99.6257 64.8383V69.2749C101.092 69.3707 102.563 69.3605 104.028 69.2446ZM104.028 53.237C104.092 51.7555 104.08 50.2718 103.994 48.7915C102.54 48.7007 101.082 48.7139 99.6304 48.8307V53.2847C101.095 53.3797 102.565 53.3708 104.028 53.2588V53.237ZM103.976 43.4368C102.538 43.3704 101.098 43.3819 99.6603 43.4713C99.5729 44.97 99.5857 46.4728 99.6994 47.9693H104.015C104.102 46.4664 104.088 44.9593 103.972 43.4586L103.976 43.4368ZM104.028 42.5668C104.096 41.0854 104.085 39.6013 103.994 38.1212C102.54 38.0326 101.082 38.0457 99.6304 38.1604V42.5972C101.095 42.6931 102.565 42.6829 104.028 42.5668ZM103.976 27.4336C102.538 27.3697 101.098 27.3813 99.6603 27.4684C99.5751 28.9654 99.5878 30.4665 99.6994 31.9618H104.015C104.107 30.4535 104.098 28.9407 103.99 27.4336H103.976ZM99.6603 22.1311C99.5734 23.6237 99.5849 25.1204 99.6948 26.6115C101.141 26.681 102.588 26.6679 104.033 26.5723V22.1181C102.576 22.0456 101.116 22.0558 99.6603 22.1485V22.1311ZM99.6948 21.2611C101.133 21.3263 102.574 21.3132 104.011 21.222C104.099 19.725 104.086 18.2238 103.972 16.7286H99.656C99.5631 18.25 99.5746 19.7761 99.6905 21.2959L99.6948 21.2611ZM99.6948 10.5865C101.133 10.6506 102.574 10.639 104.011 10.5517C104.099 9.05335 104.085 7.55065 103.972 6.054H99.656C99.5636 7.57544 99.5751 9.10153 99.6905 10.6214L99.6948 10.5865ZM104.011 5.19709C104.074 3.71559 104.063 2.23181 103.976 0.751512C102.523 0.663245 101.065 0.676324 99.613 0.790659V5.22316C101.077 5.32007 102.548 5.31134 104.011 5.19709ZM109.117 85.2344C109.182 83.7515 109.171 82.2665 109.082 80.7845C107.627 80.6964 106.168 80.7096 104.715 80.8237V85.2608C106.18 85.3575 107.652 85.349 109.117 85.2344ZM104.745 75.5126C104.678 76.9954 104.688 78.4808 104.775 79.9624C106.23 80.0531 107.689 80.0399 109.143 79.9232V75.5126C107.678 75.4116 106.209 75.4116 104.745 75.5126ZM104.792 74.6427C106.23 74.7109 107.671 74.6994 109.108 74.6078C109.195 73.1096 109.183 71.6067 109.069 70.1102H104.753C104.666 71.6199 104.679 73.1343 104.792 74.6427ZM109.078 64.7901C107.64 64.7215 106.199 64.7335 104.762 64.8251C104.674 66.3232 104.687 67.8261 104.801 69.3226H109.117C109.206 67.8172 109.193 66.3071 109.078 64.8033V64.7901ZM104.762 59.5049C104.693 60.1533 104.719 63.6072 104.792 63.9505C106.247 64.04 107.706 64.0285 109.16 63.916V59.479C107.689 59.3904 106.214 59.4031 104.745 59.5182L104.762 59.5049ZM104.805 53.3022H109.121C109.216 51.7959 109.216 50.285 109.121 48.7783H104.805C104.703 50.2931 104.697 51.813 104.788 53.3282L104.805 53.3022ZM109.177 47.9127V46.4119C109.177 45.9203 109.177 45.4292 109.177 44.9376C109.197 44.44 109.188 43.9421 109.151 43.4454C107.688 43.3717 106.223 43.3862 104.762 43.4888V47.9608C106.227 48.0387 107.696 48.0272 109.16 47.9259L109.177 47.9127ZM109.147 42.5755C109.21 41.0925 109.199 39.6073 109.112 38.1255C107.659 38.0394 106.201 38.0525 104.749 38.1647V42.6016C106.214 42.6941 107.683 42.6854 109.147 42.5755ZM109.147 37.2382C109.212 35.7568 109.201 34.273 109.117 32.7926C107.663 32.7053 106.205 32.7169 104.753 32.8274V37.2643C106.217 37.3567 107.685 37.348 109.147 37.2382ZM109.099 27.4379C107.661 27.3741 106.22 27.3856 104.784 27.4727C104.698 28.9698 104.711 30.4708 104.822 31.9662H109.138C109.218 30.4614 109.198 28.953 109.078 27.451L109.099 27.4379ZM104.784 22.1528C104.72 23.6343 104.732 25.1181 104.818 26.5984C106.272 26.6867 107.73 26.6737 109.181 26.5592V22.1398C107.716 22.0472 106.247 22.0559 104.784 22.1659V22.1528ZM109.099 16.7677C107.661 16.7026 106.22 16.7127 104.784 16.7982C104.698 18.2966 104.711 19.7992 104.822 21.2959H109.138C109.23 19.7876 109.221 18.2748 109.112 16.7677H109.099ZM109.147 15.8978C109.212 14.4163 109.201 12.9326 109.117 11.4522C107.663 11.3626 106.205 11.3742 104.753 11.487V15.9195C106.217 16.012 107.685 16.0033 109.147 15.8934V15.8978ZM104.831 10.6127H109.147C109.242 9.10766 109.242 7.5981 109.147 6.09314H104.831C104.736 7.5981 104.736 9.10766 104.831 10.6127ZM104.788 0.812403C104.724 2.29389 104.736 3.77766 104.822 5.25796C106.276 5.34401 107.734 5.33093 109.186 5.21881V0.795013C107.721 0.702537 106.252 0.711256 104.788 0.821111V0.812403ZM109.941 85.3217C111.379 85.3877 112.82 85.3762 114.257 85.2868C114.345 83.7882 114.332 82.2857 114.218 80.7892H109.902C109.81 82.2989 109.819 83.8129 109.928 85.3217H109.941ZM114.279 79.9364C114.342 78.4519 114.33 76.9652 114.244 75.4823C112.789 75.3963 111.33 75.4095 109.876 75.5215V79.9581C111.328 80.0548 112.784 80.0506 114.235 79.9449L114.279 79.9364ZM114.279 74.5993C114.342 73.1164 114.33 71.631 114.244 70.1494C112.789 70.0595 111.33 70.0715 109.876 70.1839V74.6427C111.328 74.7322 112.785 74.7207 114.235 74.6078L114.279 74.5993ZM114.227 64.7944C112.789 64.7305 111.348 64.7424 109.911 64.8293C109.822 66.3275 109.834 67.8304 109.945 69.3273H114.261C114.335 67.8193 114.309 66.3079 114.184 64.8033L114.227 64.7944ZM114.227 59.4572C112.789 59.3912 111.348 59.4027 109.911 59.4922C109.826 60.9908 109.841 62.4932 109.954 63.9897H114.27C114.343 62.4817 114.315 60.9703 114.184 59.4662L114.227 59.4572ZM109.846 48.8481C109.781 50.3297 109.794 51.8134 109.885 53.2937C111.339 53.3819 112.796 53.3691 114.248 53.2545V48.8174C112.782 48.7259 111.311 48.7361 109.846 48.8481ZM109.846 43.5105C109.781 44.9938 109.794 46.4792 109.885 47.9608C111.339 48.0456 112.796 48.0311 114.248 47.9169V43.4803C112.782 43.3887 111.311 43.3989 109.846 43.5105ZM114.231 42.5885C114.296 41.1071 114.286 39.6233 114.201 38.1429C112.746 38.0534 111.287 38.065 109.833 38.1777V42.6103C111.298 42.7019 112.767 42.6946 114.231 42.5885ZM109.85 32.8361C109.787 34.3176 109.799 35.8014 109.885 37.2817C111.339 37.3668 112.797 37.3509 114.248 37.2338V32.8143C112.784 32.7228 111.314 32.73 109.85 32.8361ZM114.231 31.9139C114.3 31.2484 114.274 27.812 114.201 27.4684C112.747 27.3823 111.289 27.3954 109.837 27.5075V31.9401C111.301 32.0325 112.769 32.0238 114.231 31.9139ZM109.85 11.4957C109.785 12.9771 109.796 14.461 109.885 15.9412C111.339 16.0283 112.797 16.0138 114.248 15.8978V11.4652C112.784 11.3717 111.314 11.3819 109.85 11.4957ZM114.235 6.13664C112.774 6.04071 111.308 6.04071 109.846 6.13664V10.6083H114.235V6.13664ZM114.184 0.768915C112.745 0.705045 111.305 0.716655 109.868 0.803708C109.781 2.30064 109.793 3.80171 109.902 5.29711H114.218C114.307 3.78863 114.295 2.27585 114.184 0.768915ZM124.542 42.5841C124.606 41.1026 124.594 39.6187 124.503 38.1386C123.051 38.0523 121.594 38.0654 120.144 38.1777V42.6146C121.609 42.706 123.078 42.6958 124.542 42.5841ZM120.204 47.9693C121.642 48.0332 123.083 48.0247 124.52 47.9433C124.607 46.4447 124.595 44.9423 124.486 43.4454H120.17C120.084 44.9525 120.094 46.4635 120.2 47.9693H120.204ZM120.153 54.1985C120.084 55.6796 120.096 57.1637 120.187 58.644C121.641 58.7301 123.099 58.7169 124.55 58.6048V54.1546C123.086 54.0613 121.616 54.0715 120.153 54.1853V54.1985ZM124.468 59.479C123.03 59.4151 121.589 59.4266 120.153 59.5139C120.068 61.0125 120.083 62.515 120.196 64.0114H124.512C124.604 62.4975 124.596 60.9789 124.486 59.4662L124.468 59.479ZM120.183 69.3315C121.621 69.3997 123.062 69.3882 124.499 69.2966C124.584 67.7997 124.571 66.2985 124.46 64.8033H120.144C120.063 66.3079 120.081 67.8163 120.2 69.3183L120.183 69.3315ZM120.183 74.6687C121.621 74.7339 123.062 74.7236 124.499 74.6385C124.588 73.1386 124.576 71.6344 124.464 70.1362H120.148C120.066 71.6378 120.084 73.1432 120.2 74.6427L120.183 74.6687ZM119.363 59.479C117.924 59.4151 116.484 59.4266 115.047 59.5139C114.959 61.0121 114.972 62.515 115.086 64.0114H119.402C119.493 62.5017 119.485 60.9878 119.376 59.479H119.363ZM120.161 75.4866C120.068 76.9929 120.068 78.5038 120.161 80.0105H124.503V75.4866H120.161ZM124.477 6.11926C123.023 6.05046 121.566 6.06643 120.114 6.16709V7.65476C120.114 8.1463 120.114 8.6378 120.114 9.12934C120.114 9.62089 120.088 10.1298 120.139 10.617C121.592 10.6987 123.048 10.6827 124.499 10.5692C124.594 9.08291 124.59 7.59184 124.486 6.10618L124.477 6.11926ZM109.846 16.833C109.835 16.8771 109.828 16.9223 109.825 16.9678C109.825 18.2989 109.825 19.6343 109.825 20.9653C109.834 21.0662 109.856 21.1655 109.889 21.2611C111.339 21.3639 112.794 21.3639 114.244 21.2611V16.7895C112.779 16.6961 111.31 16.7062 109.846 16.8199V16.833ZM109.846 22.1659C109.834 22.195 109.825 22.2258 109.82 22.2572C109.82 23.6057 109.82 24.9542 109.82 26.3026C109.83 26.4035 109.852 26.5028 109.885 26.5984C111.336 26.6939 112.793 26.6866 114.244 26.5767V22.1398C112.781 22.0452 111.313 22.0539 109.85 22.1659H109.846ZM120.148 11.4957C120.08 12.977 120.092 14.4611 120.183 15.9412C121.605 16.0285 123.031 16.014 124.451 15.8978V11.4652C123.014 11.3731 121.572 11.3833 120.135 11.4957H120.148ZM120.148 16.833C120.08 18.3144 120.094 19.7987 120.191 21.2785C121.612 21.366 123.037 21.3515 124.455 21.235V16.7895C123.018 16.6965 121.575 16.7081 120.139 16.8243L120.148 16.833ZM124.434 31.9139C124.499 30.4325 124.488 28.9487 124.404 27.4684C122.982 27.3823 121.555 27.3954 120.135 27.5075V31.9401C121.567 32.0326 123.003 32.0238 124.434 31.9139ZM119.337 10.5692C119.4 9.08768 119.389 7.6039 119.302 6.1236C117.88 6.03747 116.454 6.05055 115.034 6.16275V10.5952C116.467 10.6878 117.905 10.6791 119.337 10.5692ZM115.047 11.4913C114.982 12.1612 115.004 15.5933 115.081 15.9369C116.503 16.0243 117.929 16.0126 119.35 15.9021V11.4696C117.917 11.378 116.479 11.3853 115.047 11.4913ZM119.337 21.2394C119.4 19.7579 119.389 18.2741 119.302 16.7938C117.88 16.7076 116.454 16.7207 115.034 16.833V21.2698C116.467 21.3612 117.905 21.351 119.337 21.2394ZM119.337 37.2469C119.402 35.7654 119.391 34.2815 119.302 32.8013C117.88 32.7163 116.454 32.7308 115.034 32.8448V37.2773C116.471 37.3716 117.914 37.3614 119.35 37.2469H119.337ZM115.069 38.156C114.983 39.6485 114.992 41.1449 115.094 42.6364C116.51 42.6977 117.927 42.686 119.341 42.6016V38.1342C117.917 38.0666 116.491 38.0738 115.069 38.156ZM135.72 70.4753V71.7805C135.72 72.2155 135.72 72.6504 135.72 73.116C135.698 73.5513 135.713 73.988 135.763 74.4208C135.851 74.448 135.94 74.4668 136.031 74.4774H139.385C139.481 74.4591 139.575 74.4301 139.665 74.3905V70.4191C138.351 70.3416 137.033 70.356 135.72 70.4625V70.4753ZM134.585 78.7402V77.7396C134.585 77.409 134.585 77.0742 134.585 76.7437C134.626 76.4178 134.605 76.0872 134.524 75.7694C133.223 75.6945 131.917 75.7132 130.619 75.8257V77.1309C130.619 77.5658 130.619 78.0007 130.619 78.4663C130.591 78.9017 130.605 79.3388 130.662 79.7711C131.969 79.8802 133.284 79.8712 134.589 79.7451V78.7445L134.585 78.7402ZM131.995 74.5077C132.427 74.5077 132.858 74.5077 133.269 74.5077C133.682 74.5341 134.097 74.5213 134.507 74.4685C134.616 73.1356 134.623 71.7963 134.529 70.4625C133.235 70.3701 131.936 70.3816 130.645 70.497C130.565 71.835 130.587 73.1773 130.709 74.5124L131.995 74.5077ZM139.492 69.1531C139.54 69.1531 139.6 69.1011 139.643 69.0794C139.732 67.755 139.724 66.4263 139.622 65.1032C138.327 65.0368 137.03 65.0483 135.737 65.1382V69.1531C136.983 69.0351 138.237 69.0308 139.484 69.1403L139.492 69.1531ZM125.604 79.8406C126.804 79.8406 128.012 79.8406 129.22 79.8406C129.311 79.8406 129.402 79.7494 129.44 79.7277C129.371 78.4237 129.371 77.1168 129.44 75.8129C128.147 75.7307 126.85 75.7222 125.556 75.7865C125.467 77.1398 125.479 78.4979 125.591 79.8495L125.604 79.8406ZM146.113 26.3592C147.382 26.3592 148.664 26.3592 149.937 26.3374C150.029 25.0163 150.02 23.6899 149.907 22.3703H146.074C145.982 23.6989 145.995 25.0327 146.113 26.3592ZM149.963 31.6094C150.026 30.3194 150.015 29.0267 149.928 27.7381C148.634 27.6488 147.336 27.6604 146.044 27.7729V31.6356C147.352 31.7283 148.665 31.7196 149.971 31.6094H149.963ZM149.963 36.9685C150.05 35.6558 150.037 34.3382 149.924 33.0275H146.065V36.9902C147.359 37.0576 148.656 37.0503 149.95 36.9685H149.963ZM146.078 38.4431C146.016 39.7345 146.026 41.0285 146.109 42.3188C147.402 42.4046 148.701 42.3915 149.993 42.2797V38.417C148.686 38.3244 147.375 38.3331 146.07 38.4431H146.078ZM150.019 58.2828C150.019 57.004 150.019 55.7077 150.019 54.4247C148.707 54.331 147.389 54.3412 146.078 54.4549V58.3177C147.396 58.414 148.72 58.4021 150.036 58.2828H150.019ZM146.087 17.0374C146.011 18.3412 146.011 19.6485 146.087 20.9523C147.381 21.0393 148.679 21.0276 149.971 20.9175V17.0026C148.633 17.0244 147.338 16.9809 146.057 17.0287L146.087 17.0374ZM125.509 70.4843C125.509 71.789 125.509 73.1245 125.509 74.4382C126.802 74.5341 128.101 74.5251 129.393 74.4123V70.4536C128.099 70.3556 126.8 70.3658 125.509 70.4843ZM135.746 59.8053C135.681 61.0968 135.694 62.391 135.785 63.6809C137.079 63.7695 138.377 63.7563 139.669 63.6417V59.775C138.363 59.6834 137.051 59.6937 135.746 59.8053ZM134.555 63.6464C134.62 62.3416 134.605 61.0338 134.507 59.7311C133.212 59.7529 131.918 59.7052 130.623 59.7618V63.6766C131.932 63.7708 133.247 63.7605 134.555 63.6464ZM134.503 38.417C133.223 38.3527 131.94 38.3644 130.662 38.4518C130.576 39.7559 130.59 41.0646 130.701 42.3666H134.529C134.621 41.0485 134.612 39.7251 134.503 38.4083V38.417ZM134.559 54.394C133.221 54.394 131.939 54.3723 130.675 54.394C130.583 55.7167 130.595 57.0445 130.709 58.3654H134.593C134.593 57.0125 134.619 55.7077 134.563 54.3765L134.559 54.394ZM149.945 63.6681C150.033 62.3642 150.021 61.0551 149.911 59.7529C148.616 59.6847 147.319 59.7009 146.026 59.801V63.7158C147.321 63.7891 148.618 63.7771 149.911 63.6809L149.945 63.6681ZM144.719 70.4276C143.468 70.3633 142.214 70.3722 140.964 70.4536C140.877 71.7942 140.889 73.139 140.999 74.4774H144.719C144.817 73.1292 144.817 71.7758 144.719 70.4276ZM125.535 69.1228C126.802 69.0368 128.075 69.047 129.341 69.1531C129.436 67.7971 129.421 66.4353 129.298 65.0815H125.535V69.1228ZM135.841 22.4443C135.777 23.7358 135.788 25.0299 135.875 26.32C137.141 26.4052 138.411 26.3907 139.673 26.2765V22.4443C138.397 22.3526 137.116 22.3628 135.841 22.4747V22.4443ZM135.841 38.4474C135.776 39.7388 135.786 41.0329 135.871 42.3232C137.136 42.4106 138.406 42.3989 139.669 42.2883V38.4257C138.395 38.334 137.114 38.3413 135.841 38.4474ZM135.841 33.1145C135.775 34.4191 135.788 35.7264 135.88 37.0294C137.131 37.0294 138.392 37.0555 139.669 37.0033V33.0884C138.394 32.9979 137.114 33.0066 135.841 33.1145ZM139.656 31.6181C139.721 30.3266 139.708 29.0323 139.618 27.7424C138.354 27.6551 137.085 27.6696 135.824 27.7859V31.6486C137.101 31.7434 138.384 31.7361 139.661 31.6268L139.656 31.6181ZM135.806 54.4681C135.806 55.7512 135.785 57.0432 135.806 58.3263C137.087 58.4208 138.373 58.4123 139.652 58.3003V54.4332C138.366 54.339 137.074 54.3505 135.789 54.4681H135.806ZM144.719 59.7269C143.476 59.7269 142.224 59.7269 140.985 59.7269C140.892 61.0538 140.9 62.3859 141.011 63.7115H144.753C144.847 62.3846 144.835 61.0521 144.719 59.7269ZM144.719 49.0526C143.476 49.0526 142.228 49.0526 140.985 49.0526C140.894 50.3791 140.902 51.7112 141.011 53.0368H144.753C144.844 51.7082 144.833 50.3748 144.719 49.0479V49.0526ZM141.011 42.3536C142.277 42.4203 143.546 42.4043 144.809 42.3058C144.809 41.0008 144.835 39.6959 144.783 38.3909H140.981C140.888 39.7103 140.894 41.035 140.999 42.3536H141.011ZM140.96 33.1232C140.895 34.4278 140.91 35.7352 141.003 37.0381C142.254 37.0381 143.515 37.0642 144.792 37.0163V33.1015C143.512 33.0066 142.226 33.0139 140.947 33.1232H140.96ZM144.783 22.3703C143.489 22.3703 142.228 22.3703 140.99 22.3703C140.895 23.6956 140.902 25.0263 141.011 26.3505H144.809C144.779 25.0064 144.822 23.7057 144.771 22.3703H144.783ZM144.719 17.0374C143.476 17.0374 142.224 17.0374 140.985 17.0374C140.893 18.3629 140.903 19.6937 141.016 21.0175H144.753C144.845 19.6905 144.833 18.3583 144.719 17.033V17.0374ZM125.552 59.801V63.6681C126.827 63.7665 128.109 63.7665 129.384 63.6681V59.8355C128.106 59.7035 126.819 59.692 125.539 59.801H125.552ZM125.522 54.4766C125.522 55.7597 125.522 57.0517 125.522 58.3352C126.802 58.4285 128.088 58.4183 129.367 58.3045V54.4417C128.081 54.3476 126.789 54.3595 125.504 54.4766H125.522ZM130.657 11.7828C130.591 13.0727 130.603 14.3656 130.692 15.6541C131.956 15.743 133.224 15.7298 134.486 15.615V11.7523C133.211 11.6584 131.931 11.6686 130.657 11.7828ZM130.718 21.0306C131.957 21.0306 133.208 21.0306 134.447 21.0306C134.542 19.7066 134.532 18.3771 134.417 17.0548H130.683C130.59 18.3803 130.601 19.7112 130.718 21.035V21.0306ZM134.473 36.9641C134.536 35.6726 134.525 34.3785 134.438 33.0884C133.175 33.0022 131.906 33.0152 130.645 33.1276V36.9902C131.919 37.0829 133.199 37.0742 134.473 36.9641ZM125.552 43.7934V47.7082C126.847 47.7082 128.102 47.7299 129.38 47.6822V43.7934C128.102 43.6728 126.816 43.6728 125.539 43.7934H125.552ZM125.552 38.4605C125.488 39.752 125.5 41.0461 125.586 42.3362C126.851 42.4225 128.121 42.4095 129.384 42.2971V38.4344C128.104 38.3409 126.818 38.3497 125.539 38.4605H125.552ZM125.552 27.7903C125.488 29.0803 125.5 30.373 125.586 31.6616C126.851 31.7503 128.122 31.7372 129.384 31.6225V27.7598C128.104 27.6653 126.818 27.6755 125.539 27.7903H125.552ZM125.552 22.453C125.487 23.7445 125.5 25.0388 125.591 26.3287C126.854 26.4139 128.123 26.3994 129.384 26.2852V22.4443C128.108 22.3526 126.827 22.3627 125.552 22.4747V22.453ZM125.552 17.1157C125.488 18.4072 125.499 19.7013 125.586 20.9914C126.851 21.078 128.121 21.0649 129.384 20.9523V17.0896C128.108 16.9967 126.827 17.0054 125.552 17.1157ZM125.522 6.44982C125.522 7.73305 125.522 9.02498 125.522 10.3647C126.816 10.343 128.111 10.3865 129.367 10.3386V6.42375C128.082 6.32705 126.792 6.33574 125.509 6.44982H125.522ZM154.438 41.6359C154.499 40.7898 154.489 39.94 154.408 39.0956C153.546 39.006 152.677 39.0177 151.819 39.1304V41.6576C152.678 41.7488 153.545 41.7415 154.404 41.6359H154.438ZM151.849 28.4515V30.9831C152.71 31.0736 153.579 31.0663 154.438 30.9613V28.4645C153.569 28.3384 152.685 28.334 151.814 28.4515H151.849ZM164.74 25.624C164.802 24.7779 164.791 23.9281 164.71 23.0837C163.848 22.9979 162.98 23.011 162.121 23.1229V25.6501C162.981 25.7399 163.848 25.7312 164.706 25.624H164.74ZM164.693 28.4036H162.181C162.086 29.271 162.086 30.1462 162.181 31.0135H164.663C164.777 30.1473 164.775 29.2695 164.659 28.4036H164.693ZM164.728 36.3117C164.81 35.4545 164.797 34.5907 164.689 33.7365C163.843 33.6711 162.994 33.6856 162.151 33.78V36.3638C163.013 36.4332 163.88 36.4215 164.74 36.329L164.728 36.3117ZM169.751 28.4079C168.912 28.3459 168.069 28.3546 167.231 28.434C167.145 29.3025 167.156 30.1778 167.261 31.044H169.769C169.86 30.1674 169.854 29.2832 169.751 28.4079ZM154.343 23.0663C153.504 23.0036 152.66 23.0153 151.823 23.1011C151.738 23.9624 151.749 24.8306 151.857 25.6893H154.365C154.459 24.8173 154.456 23.9376 154.356 23.0663H154.343ZM159.496 36.2986C159.559 35.451 159.547 34.5995 159.462 33.7539C158.639 33.669 157.809 33.6822 156.989 33.7931V36.3247C157.823 36.4161 158.665 36.4073 159.496 36.2986ZM159.445 39.0738C158.637 39.0133 157.825 39.0249 157.019 39.1086C156.934 39.9773 156.947 40.8529 157.058 41.7186H159.471C159.567 40.8394 159.563 39.952 159.458 39.0738H159.445ZM159.496 20.9044C159.557 20.0568 159.545 19.2055 159.462 18.3598C158.639 18.2752 157.809 18.2883 156.989 18.3989V20.9262C157.827 21.0174 158.673 21.0101 159.51 20.9044H159.496ZM156.998 28.4601C156.932 29.3064 156.946 30.157 157.041 31.0005C157.862 31.0849 158.691 31.0703 159.51 30.957V28.4253C158.674 28.3334 157.83 28.3451 156.998 28.4601ZM188.383 30.3741C188.843 30.3992 189.303 30.3847 189.76 30.3306C189.798 29.8779 189.782 29.4223 189.712 28.9734C189.267 28.9193 188.816 28.9193 188.37 28.9734C188.336 29.4339 188.336 29.8963 188.37 30.3567L188.383 30.3741ZM174.335 30.3523V29.0474C173.879 29.032 173.421 29.0451 172.967 29.0865V30.3523C173.426 30.3967 173.888 30.3967 174.348 30.3523H174.335ZM174.335 35.6679V34.4064C173.881 34.3673 173.425 34.3673 172.971 34.4064V35.7114C173.426 35.7319 173.882 35.7174 174.335 35.6679ZM174.335 25.0107C174.391 24.5863 174.391 24.1563 174.335 23.7319H172.988V25.0107H174.335ZM179.441 26.6506V25.3457C179.009 25.3125 178.574 25.3285 178.146 25.3935V26.6463C178.581 26.6906 179.018 26.6921 179.453 26.6506H179.441ZM179.441 30.3263V29.043C179.008 29.0143 178.575 29.0303 178.146 29.0909V30.3958C178.583 30.4189 179.021 30.3956 179.453 30.3263H179.441ZM149.73 48.9043V47.6473C149.278 47.6059 148.822 47.6059 148.37 47.6473V48.9525C148.824 48.9738 149.278 48.9576 149.73 48.9043ZM149.898 65.073C149.059 65.0108 148.216 65.0193 147.377 65.099C147.288 65.9671 147.298 66.8429 147.408 67.709H149.898C149.993 66.8417 149.993 65.9663 149.898 65.099V65.073ZM91.3263 10.9128C91.2164 9.42174 91.2049 7.925 91.2918 6.43244C92.6469 6.34533 94.0053 6.3279 95.3616 6.38026V0.725414C95.0537 0.717573 94.7461 0.760165 94.4509 0.85155C68.4003 9.36858 42.3606 17.903 16.3326 26.4549C11.1794 28.1426 6.02616 29.8216 0.872951 31.492C0.648526 31.566 0.441361 31.6616 0.00976562 31.8313C0.549259 32.0096 0.898847 32.1445 1.26138 32.2663L87.4895 56.8996C89.7898 57.5565 92.0816 58.2261 94.3951 58.8178C94.7197 58.8983 95.0532 58.9392 95.3876 58.9397V47.9778C94.4811 48.0387 91.9908 48.052 91.3523 47.9778C91.2424 46.4869 91.2309 44.9904 91.3178 43.4978C92.6724 43.4104 94.0309 43.393 95.3876 43.4454V21.4873C94.4811 21.5482 91.9908 21.5613 91.3523 21.4873C91.2424 19.9963 91.2309 18.4995 91.3178 17.0069C92.6724 16.9198 94.0309 16.9024 95.3876 16.9548V10.9041C94.4556 10.965 91.9653 10.978 91.3263 10.9128ZM90.1698 32.0488C88.7257 32.146 87.2778 32.1605 85.8324 32.0923C85.7221 30.6013 85.7106 29.1045 85.7975 27.6119C87.2535 27.5197 88.7129 27.5081 90.1698 27.5771V32.0488ZM90.1698 26.5984C88.7257 26.694 87.2778 26.7071 85.8324 26.6376C85.7221 25.1465 85.7106 23.6498 85.7975 22.1572C87.2535 22.0645 88.7129 22.0543 90.1698 22.1267V26.5984ZM91.3263 79.9931C91.2164 78.5021 91.2049 77.0052 91.2918 75.5126C92.6469 75.4257 94.0053 75.4082 95.3616 75.4606V61.5625C95.0234 61.5688 94.686 61.525 94.3606 61.4321C78.3312 56.8996 62.316 52.3365 46.3156 47.7431C45.9961 47.652 45.6723 47.591 45.2323 47.4862C44.4983 52.7062 43.7043 57.7563 43.1173 62.837C42.8068 65.4862 44.1145 67.7047 45.7068 69.6881C48.4089 73.0201 51.939 75.2514 55.7026 77.1394C63.0137 80.8063 70.8084 82.7943 78.8403 84.0382C84.3082 84.8757 89.8311 85.2915 95.3616 85.2825V79.9841C94.4556 80.0408 91.9653 80.054 91.3263 79.9841V79.9931ZM90.1698 74.612C88.7257 74.7096 87.2778 74.7241 85.8324 74.6559C85.7221 73.1645 85.7106 71.6681 85.7975 70.1754C87.2535 70.0826 88.7129 70.0723 90.1698 70.1447V74.612Z" fill="url(#paint0_linear_1_3648)"/>
</g>
<path d="M22.5355 164.688V150.687H26.4355V161.547H31.8155V150.687H35.7155V164.688H22.5355ZM34.0155 167.548V163.807L34.8355 164.688H31.8155V161.547H37.6355V167.548H34.0155ZM41.5082 164.688V150.687H45.4082V158.907L51.1882 150.687H54.9082V164.688H51.0082V156.487L45.2482 164.688H41.5082ZM67.6145 163.847C65.7478 163.847 64.1678 163.607 62.8745 163.127C61.5945 162.647 60.6211 161.947 59.9545 161.027C59.3011 160.094 58.9745 158.967 58.9745 157.647C58.9745 156.314 59.3011 155.187 59.9545 154.267C60.6211 153.334 61.6011 152.627 62.8945 152.147C64.1878 151.667 65.7678 151.427 67.6345 151.427C67.6611 151.427 67.7478 151.427 67.8945 151.427C68.0545 151.427 68.2145 151.427 68.3745 151.427C68.5345 151.427 68.6211 151.427 68.6345 151.427C70.4878 151.427 72.0411 151.674 73.2945 152.167C74.5611 152.647 75.5211 153.354 76.1745 154.287C76.8278 155.207 77.1545 156.327 77.1545 157.647C77.1545 158.954 76.8345 160.074 76.1945 161.007C75.5678 161.927 74.6345 162.634 73.3945 163.127C72.1545 163.607 70.6278 163.847 68.8145 163.847C68.7878 163.847 68.6811 163.847 68.4945 163.847C68.3078 163.847 68.1278 163.847 67.9545 163.847C67.7811 163.847 67.6678 163.847 67.6145 163.847ZM67.9745 160.807C68.0145 160.807 68.0745 160.807 68.1545 160.807C68.2478 160.807 68.3145 160.807 68.3545 160.807C69.5011 160.807 70.4411 160.694 71.1745 160.467C71.9078 160.241 72.4478 159.894 72.7945 159.427C73.1411 158.961 73.3145 158.361 73.3145 157.627C73.3145 156.881 73.1345 156.281 72.7745 155.827C72.4145 155.374 71.8745 155.041 71.1545 154.827C70.4345 154.601 69.5145 154.487 68.3945 154.487C68.3545 154.487 68.2878 154.487 68.1945 154.487C68.1145 154.487 68.0411 154.487 67.9745 154.487C66.7745 154.487 65.7945 154.594 65.0345 154.807C64.2745 155.021 63.7145 155.361 63.3545 155.827C62.9945 156.281 62.8145 156.887 62.8145 157.647C62.8145 158.394 63.0078 159.001 63.3945 159.467C63.7945 159.934 64.3745 160.274 65.1345 160.487C65.9078 160.701 66.8545 160.807 67.9745 160.807ZM66.2545 165.347V150.027H69.8745V165.347H66.2545ZM81.2113 164.688V150.687H87.6113C88.8913 150.687 89.9913 150.894 90.9113 151.307C91.8447 151.721 92.5647 152.321 93.0713 153.107C93.578 153.881 93.8313 154.801 93.8313 155.867C93.8313 156.921 93.578 157.834 93.0713 158.607C92.5647 159.381 91.8447 159.981 90.9113 160.407C89.9913 160.821 88.8913 161.027 87.6113 161.027H83.4113L85.1713 159.307V164.688H81.2113ZM85.1713 159.727L83.4113 157.907H87.3713C88.198 157.907 88.8113 157.727 89.2113 157.367C89.6247 157.007 89.8313 156.507 89.8313 155.867C89.8313 155.214 89.6247 154.707 89.2113 154.347C88.8113 153.987 88.198 153.807 87.3713 153.807H83.4113L85.1713 151.987V159.727ZM104.701 164.968C103.581 164.968 102.547 164.788 101.601 164.427C100.654 164.067 99.8274 163.561 99.1207 162.907C98.4274 162.241 97.8874 161.467 97.5007 160.587C97.114 159.707 96.9207 158.741 96.9207 157.687C96.9207 156.634 97.114 155.667 97.5007 154.787C97.8874 153.907 98.4274 153.141 99.1207 152.487C99.8274 151.821 100.654 151.307 101.601 150.947C102.547 150.587 103.581 150.407 104.701 150.407C105.834 150.407 106.867 150.587 107.801 150.947C108.747 151.307 109.567 151.821 110.261 152.487C110.954 153.141 111.494 153.907 111.881 154.787C112.281 155.667 112.481 156.634 112.481 157.687C112.481 158.741 112.281 159.714 111.881 160.607C111.494 161.487 110.954 162.254 110.261 162.907C109.567 163.561 108.747 164.067 107.801 164.427C106.867 164.788 105.834 164.968 104.701 164.968ZM104.701 161.687C105.234 161.687 105.727 161.594 106.181 161.407C106.647 161.221 107.047 160.954 107.381 160.607C107.727 160.247 107.994 159.821 108.181 159.327C108.381 158.834 108.481 158.287 108.481 157.687C108.481 157.074 108.381 156.527 108.181 156.047C107.994 155.554 107.727 155.134 107.381 154.787C107.047 154.427 106.647 154.154 106.181 153.967C105.727 153.781 105.234 153.687 104.701 153.687C104.167 153.687 103.667 153.781 103.201 153.967C102.747 154.154 102.347 154.427 102.001 154.787C101.667 155.134 101.401 155.554 101.201 156.047C101.014 156.527 100.921 157.074 100.921 157.687C100.921 158.287 101.014 158.834 101.201 159.327C101.401 159.821 101.667 160.247 102.001 160.607C102.347 160.954 102.747 161.221 103.201 161.407C103.667 161.594 104.167 161.687 104.701 161.687ZM116.598 164.688V150.687H123.398C125.078 150.687 126.378 151.007 127.298 151.647C128.231 152.274 128.698 153.167 128.698 154.327C128.698 155.461 128.265 156.354 127.398 157.007C126.531 157.647 125.371 157.967 123.918 157.967L124.318 157.027C125.891 157.027 127.118 157.341 127.998 157.967C128.891 158.581 129.338 159.487 129.338 160.687C129.338 161.914 128.858 162.887 127.898 163.607C126.951 164.327 125.578 164.688 123.778 164.688H116.598ZM120.498 161.847H123.618C124.191 161.847 124.618 161.727 124.898 161.487C125.191 161.234 125.338 160.867 125.338 160.387C125.338 159.907 125.191 159.554 124.898 159.327C124.618 159.087 124.191 158.967 123.618 158.967H120.498V161.847ZM120.498 156.287H123.018C123.578 156.287 123.998 156.174 124.278 155.947C124.558 155.707 124.698 155.361 124.698 154.907C124.698 154.454 124.558 154.114 124.278 153.887C123.998 153.647 123.578 153.527 123.018 153.527H120.498V156.287ZM140.361 164.968C139.241 164.968 138.208 164.788 137.261 164.427C136.314 164.067 135.488 163.561 134.781 162.907C134.088 162.241 133.548 161.467 133.161 160.587C132.774 159.707 132.581 158.741 132.581 157.687C132.581 156.634 132.774 155.667 133.161 154.787C133.548 153.907 134.088 153.141 134.781 152.487C135.488 151.821 136.314 151.307 137.261 150.947C138.208 150.587 139.241 150.407 140.361 150.407C141.494 150.407 142.528 150.587 143.461 150.947C144.408 151.307 145.228 151.821 145.921 152.487C146.614 153.141 147.154 153.907 147.541 154.787C147.941 155.667 148.141 156.634 148.141 157.687C148.141 158.741 147.941 159.714 147.541 160.607C147.154 161.487 146.614 162.254 145.921 162.907C145.228 163.561 144.408 164.067 143.461 164.427C142.528 164.788 141.494 164.968 140.361 164.968ZM140.361 161.687C140.894 161.687 141.388 161.594 141.841 161.407C142.308 161.221 142.708 160.954 143.041 160.607C143.388 160.247 143.654 159.821 143.841 159.327C144.041 158.834 144.141 158.287 144.141 157.687C144.141 157.074 144.041 156.527 143.841 156.047C143.654 155.554 143.388 155.134 143.041 154.787C142.708 154.427 142.308 154.154 141.841 153.967C141.388 153.781 140.894 153.687 140.361 153.687C139.828 153.687 139.328 153.781 138.861 153.967C138.408 154.154 138.008 154.427 137.661 154.787C137.328 155.134 137.061 155.554 136.861 156.047C136.674 156.527 136.581 157.074 136.581 157.687C136.581 158.287 136.674 158.834 136.861 159.327C137.061 159.821 137.328 160.247 137.661 160.607C138.008 160.954 138.408 161.221 138.861 161.407C139.328 161.594 139.828 161.687 140.361 161.687ZM152.258 164.688V150.687H156.158V158.907L161.938 150.687H165.658V164.688H161.758V156.487L155.998 164.688H152.258ZM158.938 149.847C157.485 149.847 156.438 149.567 155.798 149.007C155.158 148.434 154.838 147.627 154.838 146.587H157.498C157.512 147.054 157.632 147.401 157.858 147.627C158.085 147.854 158.445 147.967 158.938 147.967C159.445 147.967 159.812 147.854 160.038 147.627C160.278 147.401 160.405 147.054 160.418 146.587H163.078C163.078 147.627 162.752 148.434 162.098 149.007C161.445 149.567 160.392 149.847 158.938 149.847ZM13.8598 188.688V174.687H17.7598V179.927H21.3798V183.247H17.7598V188.688H13.8598ZM26.6398 188.968C25.5464 188.968 24.5398 188.788 23.6198 188.427C22.6998 188.067 21.8931 187.561 21.1998 186.907C20.5198 186.254 19.9931 185.487 19.6198 184.607C19.2464 183.714 19.0598 182.741 19.0598 181.687C19.0598 180.634 19.2464 179.667 19.6198 178.787C19.9931 177.894 20.5198 177.121 21.1998 176.467C21.8931 175.814 22.6998 175.307 23.6198 174.947C24.5398 174.587 25.5464 174.407 26.6398 174.407C27.7198 174.407 28.7198 174.587 29.6398 174.947C30.5731 175.307 31.3731 175.814 32.0398 176.467C32.7198 177.121 33.2464 177.894 33.6198 178.787C33.9931 179.667 34.1798 180.634 34.1798 181.687C34.1798 182.741 33.9931 183.714 33.6198 184.607C33.2464 185.487 32.7198 186.254 32.0398 186.907C31.3731 187.561 30.5731 188.067 29.6398 188.427C28.7198 188.788 27.7198 188.968 26.6398 188.968ZM26.6198 185.687C27.1264 185.687 27.5931 185.594 28.0198 185.407C28.4464 185.221 28.8198 184.954 29.1398 184.607C29.4731 184.261 29.7264 183.841 29.8998 183.347C30.0864 182.854 30.1798 182.301 30.1798 181.687C30.1798 181.074 30.0864 180.521 29.8998 180.027C29.7264 179.534 29.4731 179.114 29.1398 178.767C28.8198 178.421 28.4464 178.154 28.0198 177.967C27.5931 177.781 27.1331 177.687 26.6398 177.687C26.1331 177.687 25.6664 177.781 25.2398 177.967C24.8131 178.154 24.4331 178.421 24.0998 178.767C23.7798 179.114 23.5264 179.534 23.3398 180.027C23.1664 180.521 23.0798 181.074 23.0798 181.687C23.0798 182.301 23.1664 182.854 23.3398 183.347C23.5264 183.841 23.7798 184.261 24.0998 184.607C24.4331 184.954 24.8131 185.221 25.2398 185.407C25.6664 185.594 26.1264 185.687 26.6198 185.687ZM38.3207 188.688V174.687H44.7207C46.0007 174.687 47.1007 174.894 48.0207 175.307C48.954 175.721 49.674 176.321 50.1807 177.107C50.6874 177.881 50.9407 178.801 50.9407 179.867C50.9407 180.921 50.6874 181.834 50.1807 182.607C49.674 183.381 48.954 183.981 48.0207 184.407C47.1007 184.821 46.0007 185.027 44.7207 185.027H40.5207L42.2807 183.307V188.688H38.3207ZM42.2807 183.727L40.5207 181.907H44.4807C45.3074 181.907 45.9207 181.727 46.3207 181.367C46.734 181.007 46.9407 180.507 46.9407 179.867C46.9407 179.214 46.734 178.707 46.3207 178.347C45.9207 177.987 45.3074 177.807 44.4807 177.807H40.5207L42.2807 175.987V183.727ZM54.7348 188.688V174.687H58.6348V182.907L64.4148 174.687H68.1348V188.688H64.2348V180.487L58.4748 188.688H54.7348ZM79.961 188.968C78.8543 188.968 77.8277 188.794 76.881 188.447C75.9477 188.087 75.1343 187.581 74.441 186.927C73.761 186.274 73.2277 185.507 72.841 184.627C72.4543 183.734 72.261 182.754 72.261 181.687C72.261 180.621 72.4543 179.647 72.841 178.767C73.2277 177.874 73.761 177.101 74.441 176.447C75.1343 175.794 75.9477 175.294 76.881 174.947C77.8277 174.587 78.8543 174.407 79.961 174.407C81.2543 174.407 82.4077 174.634 83.421 175.087C84.4477 175.541 85.301 176.194 85.981 177.047L83.461 179.327C83.0077 178.794 82.5077 178.387 81.961 178.107C81.4277 177.827 80.8277 177.687 80.161 177.687C79.5877 177.687 79.061 177.781 78.581 177.967C78.101 178.154 77.6877 178.427 77.341 178.787C77.0077 179.134 76.741 179.554 76.541 180.047C76.3543 180.541 76.261 181.087 76.261 181.687C76.261 182.287 76.3543 182.834 76.541 183.327C76.741 183.821 77.0077 184.247 77.341 184.607C77.6877 184.954 78.101 185.221 78.581 185.407C79.061 185.594 79.5877 185.687 80.161 185.687C80.8277 185.687 81.4277 185.547 81.961 185.267C82.5077 184.987 83.0077 184.581 83.461 184.047L85.981 186.327C85.301 187.167 84.4477 187.821 83.421 188.287C82.4077 188.741 81.2543 188.968 79.961 188.968ZM92.7527 188.688V176.947L93.6327 177.827H88.4527V174.687H100.933V177.827H95.7727L96.6527 176.947V188.688H92.7527ZM112.579 188.688V174.687H122.839L122.819 177.827H115.599L116.479 176.947V188.688H112.579ZM132.279 188.968C131.159 188.968 130.125 188.788 129.179 188.427C128.232 188.067 127.405 187.561 126.699 186.907C126.005 186.241 125.465 185.467 125.079 184.587C124.692 183.707 124.499 182.741 124.499 181.687C124.499 180.634 124.692 179.667 125.079 178.787C125.465 177.907 126.005 177.141 126.699 176.487C127.405 175.821 128.232 175.307 129.179 174.947C130.125 174.587 131.159 174.407 132.279 174.407C133.412 174.407 134.445 174.587 135.379 174.947C136.325 175.307 137.145 175.821 137.839 176.487C138.532 177.141 139.072 177.907 139.459 178.787C139.859 179.667 140.059 180.634 140.059 181.687C140.059 182.741 139.859 183.714 139.459 184.607C139.072 185.487 138.532 186.254 137.839 186.907C137.145 187.561 136.325 188.067 135.379 188.427C134.445 188.788 133.412 188.968 132.279 188.968ZM132.279 185.687C132.812 185.687 133.305 185.594 133.759 185.407C134.225 185.221 134.625 184.954 134.959 184.607C135.305 184.247 135.572 183.821 135.759 183.327C135.959 182.834 136.059 182.287 136.059 181.687C136.059 181.074 135.959 180.527 135.759 180.047C135.572 179.554 135.305 179.134 134.959 178.787C134.625 178.427 134.225 178.154 133.759 177.967C133.305 177.781 132.812 177.687 132.279 177.687C131.745 177.687 131.245 177.781 130.779 177.967C130.325 178.154 129.925 178.427 129.579 178.787C129.245 179.134 128.979 179.554 128.779 180.047C128.592 180.527 128.499 181.074 128.499 181.687C128.499 182.287 128.592 182.834 128.779 183.327C128.979 183.821 129.245 184.247 129.579 184.607C129.925 184.954 130.325 185.221 130.779 185.407C131.245 185.594 131.745 185.687 132.279 185.687ZM153.026 186.967V177.827H149.006L148.946 179.347C148.919 180.161 148.866 180.921 148.786 181.627C148.719 182.334 148.619 182.981 148.486 183.567C148.366 184.154 148.199 184.661 147.986 185.087C147.786 185.501 147.539 185.821 147.246 186.048L143.026 185.547C143.492 185.561 143.872 185.407 144.166 185.087C144.472 184.754 144.712 184.294 144.886 183.707C145.072 183.121 145.206 182.427 145.286 181.627C145.379 180.827 145.446 179.954 145.486 179.007L145.646 174.687H156.926V186.967H153.026ZM142.606 191.508V185.547H158.826V191.508H155.206V188.688H146.246V191.508H142.606ZM161.456 188.688L167.636 174.687H171.536L177.736 188.688H173.616L168.776 176.627H170.336L165.496 188.688H161.456ZM164.836 185.967L165.856 183.047H172.696L173.716 185.967H164.836Z" fill="white"/>
<defs>
<linearGradient id="paint0_linear_1_3648" x1="-0.59084" y1="55.7064" x2="189.215" y2="55.7064" gradientUnits="userSpaceOnUse">
<stop stop-color="#8A511C"/>
<stop offset="0.23" stop-color="#AB821D"/>
<stop offset="0.43" stop-color="#F7F67E"/>
<stop offset="0.53" stop-color="#F7F67E"/>
<stop offset="0.58" stop-color="#F7F67E"/>
<stop offset="0.82" stop-color="#AB821D"/>
<stop offset="1" stop-color="#8A511C"/>
</linearGradient>
<clipPath id="clip0_1_3648">
<rect width="189.989" height="115.016" fill="white" transform="translate(0.00561523 0.671875)"/>
</clipPath>
</defs>
</svg>
